<svg width="1200" height="630" xmlns="http://www.w3.org/2000/svg">
  <defs>
    <linearGradient id="bg" x1="0" y1="0" x2="1200" y2="630">
      <stop offset="0%" style="stop-color:#060d1a"/>
      <stop offset="100%" style="stop-color:#03080f"/>
    </linearGradient>
    <linearGradient id="accent" x1="0" y1="0" x2="1200" y2="0">
      <stop offset="0%" style="stop-color:#4ade80"/>
      <stop offset="50%" style="stop-color:#60a5fa"/>
      <stop offset="100%" style="stop-color:#e879f9"/>
    </linearGradient>
  </defs>
  <rect width="1200" height="630" fill="url(#bg)"/>
  <!-- Grid -->
  <g opacity="0.04" stroke="#60a5fa" stroke-width="1">
    <line x1="0" y1="0" x2="0" y2="630"/><line x1="40" y1="0" x2="40" y2="630"/><line x1="80" y1="0" x2="80" y2="630"/><line x1="120" y1="0" x2="120" y2="630"/><line x1="160" y1="0" x2="160" y2="630"/><line x1="200" y1="0" x2="200" y2="630"/><line x1="240" y1="0" x2="240" y2="630"/><line x1="280" y1="0" x2="280" y2="630"/><line x1="320" y1="0" x2="320" y2="630"/><line x1="360" y1="0" x2="360" y2="630"/><line x1="400" y1="0" x2="400" y2="630"/><line x1="440" y1="0" x2="440" y2="630"/><line x1="480" y1="0" x2="480" y2="630"/><line x1="520" y1="0" x2="520" y2="630"/><line x1="560" y1="0" x2="560" y2="630"/><line x1="600" y1="0" x2="600" y2="630"/><line x1="640" y1="0" x2="640" y2="630"/><line x1="680" y1="0" x2="680" y2="630"/><line x1="720" y1="0" x2="720" y2="630"/><line x1="760" y1="0" x2="760" y2="630"/><line x1="800" y1="0" x2="800" y2="630"/><line x1="840" y1="0" x2="840" y2="630"/><line x1="880" y1="0" x2="880" y2="630"/><line x1="920" y1="0" x2="920" y2="630"/><line x1="960" y1="0" x2="960" y2="630"/><line x1="1000" y1="0" x2="1000" y2="630"/><line x1="1040" y1="0" x2="1040" y2="630"/><line x1="1080" y1="0" x2="1080" y2="630"/><line x1="1120" y1="0" x2="1120" y2="630"/><line x1="1160" y1="0" x2="1160" y2="630"/><line x1="1200" y1="0" x2="1200" y2="630"/>
    <line x1="0" y1="0" x2="1200" y2="0"/><line x1="0" y1="40" x2="1200" y2="40"/><line x1="0" y1="80" x2="1200" y2="80"/><line x1="0" y1="120" x2="1200" y2="120"/><line x1="0" y1="160" x2="1200" y2="160"/><line x1="0" y1="200" x2="1200" y2="200"/><line x1="0" y1="240" x2="1200" y2="240"/><line x1="0" y1="280" x2="1200" y2="280"/><line x1="0" y1="320" x2="1200" y2="320"/><line x1="0" y1="360" x2="1200" y2="360"/><line x1="0" y1="400" x2="1200" y2="400"/><line x1="0" y1="440" x2="1200" y2="440"/><line x1="0" y1="480" x2="1200" y2="480"/><line x1="0" y1="520" x2="1200" y2="520"/><line x1="0" y1="560" x2="1200" y2="560"/><line x1="0" y1="600" x2="1200" y2="600"/>
  </g>
  <!-- Top accent -->
  <rect x="0" y="0" width="1200" height="4" fill="url(#accent)"/>
  <!-- Status dot -->
  <circle cx="100" cy="200" r="6" fill="#4ade80" opacity="0.8"/>
  <!-- Title -->
  <text x="124" y="205" font-family="'Courier New', monospace" font-size="14" fill="#4ade80" letter-spacing="3">AUDIT MY BODY · HUMAN PROTOCOL MONITOR v2.1</text>
  <!-- Main title -->
  <text x="100" y="290" font-family="system-ui, sans-serif" font-size="72" font-weight="900" fill="#dff0ff" letter-spacing="-3">Audit</text>
  <text x="100" y="370" font-family="system-ui, sans-serif" font-size="72" font-weight="900" fill="#4ade80" letter-spacing="-3">My Body</text>
  <!-- Subtitle -->
  <text x="100" y="420" font-family="'Courier New', monospace" font-size="16" fill="#4a7a9b">A security-grade body audit for on-chain operators</text>
  <text x="100" y="445" font-family="'Courier New', monospace" font-size="16" fill="#4a7a9b">who forgot they have a body.</text>
  <!-- Right side: grades -->
  <circle cx="820" cy="280" r="90" fill="none" stroke="rgba(99,179,237,0.08)" stroke-width="8"/>
  <circle cx="820" cy="280" r="90" fill="none" stroke="#4ade80" stroke-width="8" stroke-dasharray="565" stroke-dashoffset="140" stroke-linecap="round" transform="rotate(-90 820 280)" opacity="0.7"/>
  <text x="820" y="300" font-family="system-ui, sans-serif" font-size="80" font-weight="900" fill="#4ade80" text-anchor="middle">A</text>
  <!-- Grade labels -->
  <g font-family="'Courier New', monospace" font-size="13" text-anchor="middle">
    <rect x="940" y="220" width="70" height="28" rx="6" fill="rgba(74,222,128,0.1)" stroke="rgba(74,222,128,0.3)" stroke-width="1"/>
    <text x="975" y="239" fill="#4ade80" font-weight="700">A</text>
    <rect x="1020" y="220" width="70" height="28" rx="6" fill="rgba(163,230,53,0.1)" stroke="rgba(163,230,53,0.3)" stroke-width="1"/>
    <text x="1055" y="239" fill="#a3e635" font-weight="700">B</text>
    <rect x="940" y="258" width="70" height="28" rx="6" fill="rgba(252,211,77,0.1)" stroke="rgba(252,211,77,0.3)" stroke-width="1"/>
    <text x="975" y="277" fill="#fcd34d" font-weight="700">C</text>
    <rect x="1020" y="258" width="70" height="28" rx="6" fill="rgba(251,146,60,0.1)" stroke="rgba(251,146,60,0.3)" stroke-width="1"/>
    <text x="1055" y="277" fill="#fb923c" font-weight="700">D</text>
    <rect x="980" y="296" width="70" height="28" rx="6" fill="rgba(248,113,113,0.1)" stroke="rgba(248,113,113,0.3)" stroke-width="1"/>
    <text x="1015" y="315" fill="#f87171" font-weight="700">F</text>
  </g>
  <!-- Bottom stats -->
  <text x="100" y="530" font-family="'Courier New', monospace" font-size="13" fill="#1e3a5f" letter-spacing="1">> get_grade() · touch_grass() · proof_of_walk() · exploit_scan()</text>
  <!-- Footer -->
  <text x="100" y="580" font-family="'Courier New', monospace" font-size="12" fill="#1e3a5f">auditmybody.com · @Merulez99 · No blockchain calls. Your mitochondria, however, are real.</text>
  <!-- Bottom accent -->
  <rect x="0" y="626" width="1200" height="4" fill="url(#accent)" opacity="0.5"/>
</svg>
